<?xml version="1.0" encoding="utf-8"?>
<!-- Generator: Adobe Illustrator 22.1.0, SVG Export Plug-In . SVG Version: 6.00 Build 0)  -->
<svg version="1.1" id="logo" xmlns="http://www.w3.org/2000/svg" xmlns:xlink="http://www.w3.org/1999/xlink" x="0px" y="0px"
	 viewBox="0 0 192.3 63.4" style="enable-background:new 0 0 192.3 63.4;" xml:space="preserve">
<style type="text/css">
	.st0{fill:#CE0E2D;}
	.st1{fill:#001E61;}
	.st2{fill:#1D285C;}
</style>
<g>
	<g id="Group_1247_1_">
		<path id="Path_477_1_" class="st0" d="M50.7,50.6l4.4-7.8h-8.9l-12-21l-4.4,7.8l12,21C41.8,50.6,50.7,50.6,50.7,50.6z"/>
		<path id="Path_478_1_" class="st0" d="M34.3,1h-9l4.4,7.8l-12,20.8h9.1l12-20.8L34.3,1z"/>
		<path id="Path_479_1_" class="st0" d="M0,40.1l4.4,7.8l4.4-7.8h23.9l-4.4-7.8H4.4L0,40.1z"/>
		<path id="Path_480_1_" class="st1" d="M56.7,40.1l4.4-7.8h-9L40.3,11.4l-4.4,7.8l12,20.8H56.7z"/>
		<path id="Path_481_1_" class="st1" d="M22.3,1h-8.9l4.4,7.8l-12,20.8h9l12-20.8L22.3,1z"/>
		<path id="Path_482_1_" class="st1" d="M5.9,50.6l4.4,7.8l4.4-7.8h23.9l-4.4-7.8H10.5L5.9,50.6z"/>
	</g>
	<g>
		<path class="st1" d="M67.9,3.9c0-0.8,0-1.6-0.1-2.4l1.7-0.1l0.1,0.1v6.3c0,0.7,0.1,1.2,0.5,1.6C70.6,9.8,71,10,71.7,10
			c0.5,0,1.1-0.1,1.3-0.5c0.4-0.4,0.5-0.9,0.5-1.6V3.5c0-0.8,0-1.5-0.1-2.2l1.9-0.1v6.7c0,1.1-0.4,2-1.1,2.6
			c-0.7,0.5-1.6,0.9-2.7,0.9c-1.1,0-2-0.3-2.7-0.9C68.2,10,67.8,9,67.8,7.9L67.9,3.9L67.9,3.9z"/>
		<path class="st1" d="M83,11.3h-1.7V6.6c0-0.7-0.1-1.5-0.3-2.3L82.6,4c0.1,0.4,0.3,0.7,0.3,1.1C83.5,4.4,84.3,4,85.1,4
			c0.7,0,1.1,0.1,1.5,0.5C87,5,87.1,5.5,87.1,6.2v5.1h-1.7V6.6c0-0.8-0.4-1.3-1.1-1.3c-0.4,0-0.9,0.1-1.3,0.5L83,11.3L83,11.3z"/>
		<path class="st1" d="M95.1,1.6c0,0.3-0.1,0.7-0.4,0.8c-0.3,0.3-0.5,0.4-0.8,0.4S93.3,2.7,93,2.6c-0.1-0.1-0.3-0.4-0.3-0.7
			s0.1-0.7,0.4-0.8c0.3-0.1,0.5-0.4,0.9-0.4c0.3,0,0.5,0.1,0.7,0.3S95.1,1.4,95.1,1.6z M93,11.3V6.6c0-0.8,0-1.6-0.1-2.4l1.7-0.3
			L94.8,4v7.1L93,11.3L93,11.3z"/>
		<path class="st1" d="M106.4,4.3l-2.3,7h-1.9l-2.3-7.1l1.9-0.1l0.9,3.6c0.3,1.1,0.5,1.9,0.5,2.4l0,0c0.1-0.5,0.3-1.3,0.7-2.4
			l0.9-3.6L106.4,4.3L106.4,4.3z"/>
		<path class="st1" d="M116.7,7.7l-0.3,0.3h-4c0,0.8,0.3,1.3,0.7,1.7c0.4,0.4,0.8,0.5,1.5,0.5c0.5,0,1.2-0.1,1.7-0.5l0.1,1.2
			c-0.7,0.4-1.3,0.7-2.4,0.7c-1.1,0-1.9-0.3-2.6-0.9s-0.9-1.5-0.9-2.7s0.3-2,0.9-2.8s1.5-1.1,2.4-1.1c0.8,0,1.5,0.3,2,0.8
			c0.5,0.5,0.8,1.2,0.8,2.2C116.7,7.3,116.7,7.5,116.7,7.7z M113.9,5.1c-0.4,0-0.8,0.1-0.9,0.5c-0.3,0.4-0.4,0.9-0.4,1.6l2.6-0.1
			c0-0.1,0-0.3,0-0.5c0-0.4-0.1-0.8-0.3-1.1C114.6,5.3,114.3,5.1,113.9,5.1z"/>
		<path class="st1" d="M124,11.3h-1.7V6.6c0-0.7-0.1-1.5-0.3-2.3l1.6-0.3c0.1,0.5,0.3,0.9,0.4,1.5c0.5-0.9,1.2-1.5,1.9-1.5
			c0.3,0,0.5,0,0.7,0.1l-0.1,1.7c-0.3-0.1-0.5-0.1-0.8-0.1c-0.5,0-1.1,0.1-1.6,0.5C124,6.3,124,11.3,124,11.3z"/>
		<path class="st1" d="M135.8,4.4l-0.1,1.3c-0.7-0.4-1.3-0.5-1.9-0.5c-0.4,0-0.7,0.1-0.8,0.3c-0.3,0.1-0.3,0.3-0.3,0.5
			c0,0.3,0.1,0.4,0.4,0.7c0.3,0.1,0.5,0.4,0.8,0.5c0.3,0.1,0.7,0.3,1.1,0.4c0.4,0.1,0.7,0.4,0.8,0.7c0.3,0.3,0.4,0.7,0.4,1.1
			c0,0.7-0.3,1.2-0.8,1.5c-0.5,0.4-1.2,0.5-2.2,0.5s-1.7-0.1-2.4-0.5l0.1-1.3c0.8,0.4,1.5,0.7,2.3,0.7c0.4,0,0.7-0.1,0.8-0.3
			c0.1-0.1,0.3-0.3,0.3-0.5c0-0.3-0.1-0.4-0.4-0.7c-0.3-0.1-0.5-0.4-0.8-0.5s-0.7-0.3-0.9-0.4s-0.7-0.4-0.8-0.7
			c-0.3-0.3-0.4-0.7-0.4-1.1c0-0.7,0.3-1.2,0.8-1.6c0.5-0.4,1.2-0.5,2-0.5C134.5,4,135.1,4.2,135.8,4.4z"/>
		<path class="st1" d="M143.3,1.6c0,0.3-0.1,0.7-0.4,0.8c-0.3,0.1-0.5,0.4-0.8,0.4c-0.3,0-0.5-0.1-0.8-0.3c-0.1-0.1-0.1-0.4-0.1-0.7
			s0.1-0.7,0.4-0.8c0.3-0.3,0.5-0.4,0.9-0.4c0.3,0,0.5,0.1,0.7,0.3S143.3,1.4,143.3,1.6z M141.3,11.3V6.6c0-0.8,0-1.6-0.1-2.4
			l1.7-0.3l0.1,0.1v7.1L141.3,11.3L141.3,11.3z"/>
		<path class="st1" d="M153,0.7l1.7-0.3l0.1,0.1v8.7c0,0.7,0.1,1.3,0.3,1.9l-1.6,0.1c-0.1-0.1-0.3-0.5-0.4-0.9l0,0
			c-0.5,0.7-1.1,0.9-2,0.9c-0.9,0-1.5-0.3-2-0.9c-0.5-0.7-0.8-1.5-0.8-2.6c0-1.2,0.4-2.2,1.1-3c0.7-0.7,1.6-1.1,2.7-1.1
			c0.3,0,0.5,0,0.9,0.1V3C153.2,2,153.2,1.4,153,0.7z M150.5,7.7c0,0.8,0.1,1.5,0.4,1.9c0.3,0.5,0.7,0.7,1.2,0.7
			c0.4,0,0.8-0.1,1.1-0.4V5c-0.3,0-0.5-0.1-0.7-0.1c-0.7,0-1.1,0.3-1.5,0.7C150.6,6.2,150.5,6.9,150.5,7.7z"/>
		<path class="st1" d="M166.1,9.3c0,0.7,0.1,1.3,0.3,2l-1.5,0.1c-0.1-0.3-0.3-0.5-0.4-0.9l0,0c-0.3,0.3-0.5,0.5-0.9,0.7
			c-0.4,0.1-0.8,0.3-1.2,0.3c-0.5,0-1.1-0.1-1.3-0.4c-0.4-0.3-0.5-0.7-0.5-1.2c0-0.8,0.4-1.3,1.1-1.7c0.7-0.4,1.6-0.7,2.8-0.7V6.7
			c0-0.8-0.4-1.3-1.3-1.3c-0.7,0-1.5,0.3-2.2,0.7l-0.1-1.3c0.9-0.4,1.7-0.5,2.7-0.5s1.6,0.3,2,0.7c0.4,0.4,0.7,0.9,0.7,1.7
			c0,0.4,0,0.8,0,1.5C166.1,8.6,166.1,9,166.1,9.3z M162.2,9.4c0,0.3,0.1,0.5,0.3,0.7c0.1,0.1,0.4,0.3,0.7,0.3
			c0.4,0,0.8-0.1,1.2-0.5V7.9c-0.7,0-1.1,0.3-1.5,0.4C162.3,8.6,162.2,9,162.2,9.4z"/>
		<path class="st1" d="M175.6,0.7l1.7-0.3l0.1,0.1v8.7c0,0.7,0.1,1.3,0.3,1.9l-1.6,0.1c-0.1-0.1-0.3-0.5-0.4-0.9l0,0
			c-0.5,0.7-1.1,0.9-2,0.9s-1.5-0.3-2-0.9c-0.5-0.7-0.8-1.5-0.8-2.6c0-1.2,0.4-2.2,1.1-3c0.7-0.7,1.6-1.1,2.7-1.1
			c0.3,0,0.5,0,0.9,0.1V3C175.7,2,175.7,1.4,175.6,0.7z M173.1,7.7c0,0.8,0.1,1.5,0.4,1.9c0.3,0.5,0.7,0.7,1.2,0.7
			c0.4,0,0.8-0.1,1.1-0.4V5c-0.3,0-0.5-0.1-0.7-0.1c-0.7,0-1.1,0.3-1.5,0.7C173.2,6.2,173.1,6.9,173.1,7.7z"/>
	</g>
	<g>
		<path class="st1" d="M78.8,51.2l0.3,0.3l1.2,11h-2l-0.4-4c-0.1-1.2-0.3-3-0.4-5l0,0c-0.3,1.2-0.7,2.8-1.2,5l-1.2,4h-2.3l-1.1-4
			c-0.5-1.9-0.9-3.5-1.2-5l0,0c-0.1,1.2-0.3,2.8-0.4,5l-0.4,4h-1.7l1.2-11.2l2.7-0.1l1.3,4.6c0.4,1.6,0.8,3.2,1.1,4.8l0,0
			c0.3-1.6,0.5-3.2,1.1-4.8l1.3-4.4L78.8,51.2z"/>
		<path class="st1" d="M89.4,58.5l-0.3,0.3h-4.4c0.1,0.8,0.3,1.5,0.8,1.9c0.5,0.4,0.9,0.7,1.6,0.7s1.3-0.1,2-0.5l0.1,1.3
			c-0.7,0.4-1.6,0.7-2.7,0.7c-1.2,0-2.2-0.4-3-1.1c-0.7-0.7-1.1-1.7-1.1-3c0-1.3,0.4-2.3,1.1-3.1c0.7-0.8,1.6-1.2,2.7-1.2
			c0.9,0,1.7,0.3,2.3,0.9c0.5,0.5,0.8,1.3,0.8,2.4C89.4,58,89.4,58.4,89.4,58.5z M87.7,50.4l0.1,0.4c-0.7,0.9-1.5,1.9-2.6,2.7
			l-0.8-0.1c0.7-1.1,1.1-2.2,1.3-3H87.7z M86.3,55.5c-0.4,0-0.8,0.3-1.1,0.7c-0.3,0.4-0.4,1.1-0.5,1.7l2.8-0.1c0-0.1,0-0.3,0-0.5
			c0-0.5-0.1-0.9-0.3-1.2C87,55.7,86.7,55.5,86.3,55.5z"/>
		<path class="st1" d="M96.4,62.5l-1.7-3.1L93,62.5h-1.6l-0.1-0.3l2.3-3.8l-2.3-4l2-0.3l1.7,3.4l1.6-3.4l1.6,0.1l0.1,0.3L96,58.4
			l2.4,4h-2V62.5z"/>
		<path class="st1" d="M103.1,51.8c0,0.4-0.1,0.7-0.4,0.9s-0.5,0.4-0.9,0.4c-0.4,0-0.7-0.1-0.8-0.4c-0.3-0.3-0.3-0.5-0.3-0.8
			c0-0.4,0.1-0.7,0.4-0.9c0.3-0.3,0.5-0.4,0.9-0.4c0.3,0,0.5,0.1,0.8,0.3C103,51.1,103.1,51.4,103.1,51.8z M100.8,62.5v-5.2
			c0-0.9,0-1.9-0.1-2.7l2-0.3l0.3,0.3v7.9H100.8z"/>
		<path class="st1" d="M112.3,55l-0.4,1.6c-0.7-0.4-1.2-0.7-1.9-0.7c-0.5,0-1.1,0.3-1.5,0.7c-0.4,0.4-0.5,1.1-0.5,1.9
			c0,0.9,0.1,1.6,0.7,2c0.4,0.5,0.9,0.8,1.7,0.8c0.5,0,1.2-0.1,1.7-0.5l0.1,1.3c-0.7,0.4-1.5,0.7-2.4,0.7c-1.2,0-2.2-0.4-2.8-1.1
			s-1.1-1.7-1.1-3c0-1.3,0.4-2.3,1.1-3.1c0.8-0.8,1.7-1.2,2.8-1.2C110.8,54.3,111.6,54.6,112.3,55z"/>
		<path class="st1" d="M121.4,58.5c0,1.3-0.4,2.4-1.1,3.1s-1.6,1.1-2.7,1.1c-1.1,0-1.9-0.4-2.6-1.1s-1.1-1.7-1.1-3
			c0-1.3,0.4-2.4,1.1-3.1s1.6-1.2,2.7-1.2c1.1,0,2,0.4,2.7,1.1C121.1,56.2,121.4,57.3,121.4,58.5z M116,58.5c0,2,0.5,3,1.6,3
			c0.5,0,0.9-0.3,1.2-0.8c0.3-0.5,0.4-1.2,0.4-2.2c0-2-0.5-3.1-1.6-3.1c-0.5,0-0.9,0.3-1.2,0.8C116.3,56.8,116,57.6,116,58.5z"/>
	</g>
	<g>
		<path class="st2" d="M83.5,41v3.8H68.3V25.3c0-2.4-0.1-4.6-0.4-6.5l4.6-0.4L73,19v22.2L83.5,41z"/>
		<path class="st2" d="M100.4,39.5c0,1.9,0.3,3.6,0.8,5.1l-3.9,0.4c-0.4-0.7-0.8-1.6-1.1-2.6h-0.1c-0.5,0.7-1.3,1.3-2.3,1.9
			c-0.9,0.5-2.2,0.8-3.2,0.8c-1.5,0-2.7-0.4-3.6-1.2c-0.9-0.8-1.3-1.9-1.3-3.4c0-2,0.9-3.6,2.8-4.6c1.9-1.1,4.3-1.6,7.4-1.7v-1.7
			c0-2.3-1.2-3.4-3.5-3.4c-1.9,0-3.8,0.5-5.6,1.6l-0.3-3.6c2.4-0.9,4.7-1.5,7.1-1.5c2.3,0,4,0.5,5.2,1.6c1.2,1.1,1.7,2.6,1.7,4.6
			c0,0.9,0,2.3,0,4C100.4,37.7,100.4,38.9,100.4,39.5z M90.2,39.8c0,0.7,0.3,1.3,0.7,1.7c0.4,0.5,1.1,0.7,1.7,0.7
			c1.2,0,2.2-0.4,3.1-1.3v-5.1c-1.6,0.1-3,0.5-4,1.2C90.8,37.8,90.2,38.7,90.2,39.8z"/>
	</g>
	<g>
		<path class="st2" d="M126.3,37.3c0,2.4-0.8,4.2-2.6,5.5c-1.7,1.3-4,2-6.9,2c-3.1,0-5.5-0.5-7.3-1.5L110,39c0.9,0.5,2,1.1,3.5,1.3
			c1.3,0.3,2.6,0.4,3.6,0.4c1.3,0,2.4-0.3,3.2-0.9c0.8-0.5,1.1-1.3,1.1-2.4c0-0.3,0-0.5-0.1-0.8c0-0.3-0.1-0.5-0.3-0.7
			s-0.3-0.4-0.4-0.7c-0.1-0.3-0.4-0.4-0.4-0.5c-0.1-0.1-0.3-0.3-0.7-0.5c-0.3-0.3-0.5-0.4-0.7-0.4c-0.1-0.1-0.4-0.3-0.8-0.4
			c-0.4-0.3-0.7-0.4-0.8-0.4c-0.1-0.1-0.4-0.3-0.9-0.4c-0.4-0.3-0.7-0.4-0.8-0.4c-0.9-0.4-1.6-0.8-2.2-1.2c-0.5-0.4-1.2-0.8-1.7-1.5
			c-0.7-0.5-1.1-1.2-1.3-2c-0.3-0.8-0.4-1.6-0.4-2.7c0-2.4,0.9-4.2,2.7-5.5c1.7-1.3,4.2-2,7-2c2.4,0,4.4,0.4,6.2,1.1l-0.7,4.3
			c-1.7-1.1-3.6-1.5-5.6-1.5c-1.5,0-2.6,0.3-3.4,0.9c-0.8,0.7-1.2,1.3-1.2,2.4c0,0.4,0,0.7,0.1,1.1c0.1,0.3,0.3,0.7,0.5,0.9
			c0.3,0.3,0.5,0.5,0.7,0.8c0.1,0.1,0.5,0.4,0.9,0.7c0.5,0.3,0.8,0.5,1.1,0.5c0.1,0.1,0.5,0.3,1.2,0.7c0.7,0.3,1.1,0.5,1.2,0.5
			c0.8,0.4,1.5,0.8,2.2,1.2c0.5,0.4,1.2,0.8,1.7,1.5c0.7,0.7,1.1,1.3,1.3,2.2C126.1,35.4,126.3,36.3,126.3,37.3z"/>
		<path class="st2" d="M143.9,39.1c0,1.9,0.3,3.8,0.8,5.4l-4,0.4c-0.4-0.7-0.8-1.6-1.1-2.7h-0.1c-0.5,0.8-1.3,1.3-2.4,1.9
			c-1.1,0.5-2.2,0.8-3.4,0.8c-1.6,0-2.8-0.4-3.8-1.2c-0.9-0.8-1.3-2-1.3-3.5c0-2.2,0.9-3.6,3-4.7c1.9-1.1,4.4-1.6,7.7-1.7v-1.9
			c0-2.3-1.2-3.5-3.6-3.5c-2,0-3.9,0.5-5.9,1.7l-0.3-3.8c2.4-1.1,4.8-1.5,7.4-1.5c2.4,0,4.2,0.5,5.4,1.6c1.2,1.1,1.9,2.7,1.9,4.8
			c0,0.9,0,2.3,0,4.2C143.9,37.1,143.9,38.3,143.9,39.1z M133.4,39.3c0,0.7,0.3,1.3,0.7,1.9c0.4,0.5,1.1,0.8,1.9,0.8
			c1.2,0,2.3-0.4,3.2-1.3v-5.2c-1.7,0.1-3.1,0.5-4.2,1.2S133.4,38.2,133.4,39.3z"/>
		<path class="st2" d="M153.7,44.4h-4.8V21.9c0-2-0.1-4.2-0.4-6.5l4.8-0.5l0.5,0.5L153.7,44.4L153.7,44.4z"/>
		<path class="st2" d="M163.4,44.4h-4.8V21.9c0-2-0.1-4.2-0.4-6.5l4.8-0.5l0.5,0.5L163.4,44.4L163.4,44.4z"/>
		<path class="st2" d="M183.7,34.7l-0.5,0.5h-10.9c0.1,2,0.8,3.6,1.7,4.6c0.9,0.9,2.4,1.5,4,1.5c1.6,0,3.2-0.4,4.8-1.3l0.3,3.2
			c-1.7,1.1-3.9,1.6-6.5,1.6c-3,0-5.2-0.8-7-2.6s-2.6-4.2-2.6-7.3c0-3.1,0.8-5.6,2.6-7.5c1.7-1.9,3.9-2.8,6.6-2.8
			c2.3,0,4.2,0.7,5.5,2.2c1.3,1.5,2,3.4,2,5.6C183.8,33.5,183.8,34.2,183.7,34.7z M176,27.6c-1.1,0-2,0.5-2.7,1.6
			c-0.7,1.1-1.1,2.6-1.2,4.3l6.7-0.3c0-0.3,0-0.8,0-1.3c0-1.2-0.3-2.3-0.8-3.1S176.9,27.6,176,27.6z"/>
	</g>
	<g>
		<path id="Path_483" class="st1" d="M187,39.4h1.5c0.3,0,0.7,0.1,1,0.2c0.3,0.2,0.5,0.5,0.5,0.8c0,0.3-0.1,0.6-0.3,0.8
			c-0.1,0.1-0.3,0.2-0.5,0.3c0.4,0.1,0.6,0.3,0.6,0.8c0,0.4,0.1,0.9,0.3,1.3h-0.6c-0.1-0.4-0.2-0.7-0.2-1.1
			c-0.1-0.6-0.2-0.8-0.9-0.8h-0.7v1.9H187V39.4 M187.5,41.2h0.9c0.2,0,0.4,0,0.6-0.1c0.2-0.1,0.3-0.3,0.3-0.6c0-0.7-0.6-0.7-0.8-0.7
			h-0.9V41.2z"/>
		<path id="Path_484" class="st1" d="M191.9,41.5c0,1.9-1.6,3.4-3.4,3.3s-3.4-1.6-3.3-3.4c0-1.9,1.5-3.3,3.4-3.3
			C190.4,38.1,191.9,39.6,191.9,41.5z M188.5,37.8c-2.1,0-3.7,1.6-3.8,3.7c0,2.1,1.6,3.7,3.7,3.8c2.1,0,3.7-1.6,3.8-3.7c0,0,0,0,0,0
			C192.2,39.4,190.5,37.8,188.5,37.8z"/>
	</g>
</g>
</svg>
